<?xml version="1.0" standalone="no"?>
<!DOCTYPE svg PUBLIC "-//W3C//DTD SVG 20010904//EN"
 "http://www.w3.org/TR/2001/REC-SVG-20010904/DTD/svg10.dtd">
<svg version="1.0" xmlns="http://www.w3.org/2000/svg"
 width="40.000000pt" height="40.000000pt" viewBox="0 0 40.000000 40.000000"
 preserveAspectRatio="xMidYMid meet">

<g transform="translate(0.000000,40.000000) scale(0.011111,-0.011111)"
fill="#ff0000" stroke="none">
<path d="M1658 2639 c-171 -18 -346 -75 -473 -154 -124 -77 -230 -206 -250
-305 -12 -63 -16 -69 -44 -75 -39 -8 -89 -60 -103 -106 -15 -51 2 -111 43
-152 l30 -30 -25 -26 c-53 -55 -71 -167 -41 -255 14 -42 14 -49 -1 -77 -38
-74 24 -169 109 -169 21 0 26 -6 32 -37 20 -112 101 -213 213 -266 l67 -32
585 0 585 0 67 32 c112 53 196 158 214 266 6 31 11 37 31 37 85 0 147 95 109
169 -15 28 -15 35 -1 77 30 89 12 200 -42 257 l-27 27 22 16 c28 20 62 85 62
120 0 38 -36 109 -64 128 -13 8 -35 18 -50 22 -26 6 -29 12 -41 74 -19 93
-114 214 -229 293 -124 84 -315 147 -507 167 -113 11 -158 11 -271 -1z m396
-80 c253 -51 453 -176 526 -330 16 -35 30 -76 30 -91 l0 -28 -810 0 -810 0 0
28 c0 37 43 127 86 179 77 94 243 186 413 229 183 47 372 51 565 13z m657
-519 c28 -16 51 -67 44 -99 -3 -16 -17 -39 -31 -52 l-26 -24 -898 0 -898 0
-26 24 c-14 13 -28 36 -31 52 -7 31 15 82 42 98 25 14 1797 15 1824 1z m-31
-259 c74 -39 102 -154 58 -241 -29 -56 -68 -79 -151 -87 -79 -7 -78 -7 -101
127 -19 106 -39 149 -80 168 -58 29 -110 -17 -181 -158 -24 -47 -50 -91 -57
-98 -20 -16 -45 12 -93 106 -46 89 -92 132 -141 132 -71 0 -125 -49 -163 -150
-52 -138 -100 -160 -101 -45 0 54 -21 108 -55 142 -28 28 -40 33 -79 33 -87 0
-174 -68 -197 -152 -19 -71 -28 -88 -48 -88 -23 0 -35 15 -51 65 -19 58 -48
92 -97 116 -76 37 -142 5 -214 -100 -19 -28 -38 -51 -42 -51 -16 0 -47 86 -47
131 0 60 35 126 80 150 33 18 76 19 880 19 804 0 847 -1 880 -19z m-276 -123
c8 -18 20 -69 26 -113 15 -91 31 -129 61 -146 34 -18 157 -7 209 18 33 17 46
20 52 10 11 -18 10 -31 -6 -53 -14 -19 -35 -19 -946 -19 -911 0 -932 0 -946
19 -16 22 -17 35 -5 54 6 10 14 9 38 -5 26 -14 33 -15 47 -4 9 7 16 23 16 36
0 40 100 155 134 155 7 0 28 -10 47 -23 26 -17 38 -37 52 -81 14 -43 26 -62
50 -77 70 -42 140 -10 153 69 14 87 78 152 151 152 42 0 59 -31 73 -132 13
-93 29 -118 75 -118 54 0 98 48 140 150 36 87 63 119 102 120 30 0 57 -31 106
-124 93 -174 159 -168 250 24 57 121 96 149 121 88z m201 -400 c-21 -97 -105
-193 -198 -225 -48 -17 -98 -18 -607 -18 -509 0 -559 1 -607 18 -91 32 -178
130 -198 225 l-7 32 812 0 812 0 -7 -32z"/>
<path d="M2135 2481 c-3 -6 -12 -28 -19 -50 -12 -32 -12 -42 -2 -57 20 -26 42
-11 60 42 12 35 13 51 5 61 -13 15 -35 17 -44 4z"/>
<path d="M1605 2440 c-32 -33 -36 -41 -25 -55 19 -23 32 -19 73 23 26 26 36
44 31 55 -10 27 -37 20 -79 -23z"/>
<path d="M1869 2293 c-6 -15 -12 -44 -13 -63 -1 -29 3 -35 19 -35 23 0 47 43
49 89 1 25 -3 32 -21 34 -17 3 -26 -4 -34 -25z"/>
<path d="M1263 2294 c-8 -22 69 -99 91 -91 26 10 19 41 -17 75 -36 35 -64 41
-74 16z"/>
<path d="M2211 2276 c-25 -25 -31 -39 -26 -55 3 -12 14 -21 24 -21 24 0 81 62
81 88 0 34 -40 28 -79 -12z"/>
<path d="M1612 2278 c-19 -19 -15 -31 26 -71 26 -26 44 -36 55 -31 27 10 20
42 -18 79 -38 38 -45 41 -63 23z"/>
</g>
</svg>
