<?xml version="1.0" standalone="no"?>
<!DOCTYPE svg PUBLIC "-//W3C//DTD SVG 20010904//EN"
 "http://www.w3.org/TR/2001/REC-SVG-20010904/DTD/svg10.dtd">
<svg version="1.0" xmlns="http://www.w3.org/2000/svg"
 width="258.000000pt" height="240.000000pt" viewBox="0 0 258.000000 240.000000"
 preserveAspectRatio="xMidYMid meet">

<g transform="translate(0.000000,240.000000) scale(0.100000,-0.100000)"
fill="#bf1109" stroke="none">
<path d="M495 2380 c-11 -4 -40 -29 -65 -54 l-44 -46 -76 0 c-81 0 -120 -16
-120 -50 0 -10 14 -49 31 -86 l30 -68 -27 -74 c-22 -62 -25 -78 -15 -99 12
-26 12 -26 101 -19 l89 7 62 -46 c33 -25 70 -45 80 -45 27 0 46 36 59 112 l12
67 69 50 c94 69 93 91 -11 148 l-67 37 -24 75 c-26 79 -49 105 -84 91z m25
-171 c0 -27 36 -64 79 -84 23 -10 41 -21 41 -24 0 -4 -13 -14 -29 -24 -49 -29
-78 -72 -86 -126 l-7 -51 -46 36 c-45 34 -50 36 -110 32 -54 -3 -63 -2 -59 11
32 110 32 109 9 156 -12 25 -22 50 -22 56 0 5 25 9 60 7 59 -2 62 -1 103 40
l42 43 12 -28 c7 -16 12 -35 13 -44z"/>
<path d="M2101 2376 c-7 -8 -20 -43 -30 -78 -17 -59 -21 -65 -72 -95 -72 -42
-79 -50 -79 -78 0 -21 39 -58 117 -110 1 0 9 -35 18 -76 23 -112 48 -120 139
-48 52 42 54 42 131 30 57 -10 91 -1 99 27 4 10 -5 49 -19 86 l-25 66 30 67
c35 77 36 85 12 106 -14 13 -38 17 -93 17 l-75 0 -49 50 c-50 51 -82 62 -104
36z m184 -166 c30 0 55 -2 55 -5 0 -3 -10 -25 -21 -48 -22 -42 -21 -69 6 -140
7 -16 2 -17 -46 -11 -49 5 -58 3 -96 -25 -50 -36 -53 -37 -53 -13 0 51 -23 94
-66 125 l-44 31 47 25 c46 25 56 40 79 120 3 9 17 2 44 -23 36 -32 46 -36 95
-36z"/>
<path d="M1494 2366 c-13 -9 -39 -65 -69 -146 -58 -157 -56 -168 25 -216 65
-39 100 -42 134 -11 39 35 157 179 167 205 16 42 -12 74 -113 130 -102 56
-113 59 -144 38z m113 -112 c56 -31 63 -38 51 -52 -10 -14 -84 -104 -119 -146
-4 -5 -23 1 -42 13 l-35 22 30 82 c17 45 33 90 35 100 3 9 8 17 11 17 3 0 34
-16 69 -36z"/>
<path d="M999 2230 c-46 -13 -78 -41 -99 -84 -26 -54 -25 -78 5 -210 29 -131
40 -250 31 -338 l-7 -65 -42 14 c-154 54 -248 12 -302 -132 -15 -38 -122 -335
-237 -660 -226 -633 -235 -667 -195 -728 17 -27 18 -27 143 -27 l126 0 551
196 c303 108 582 207 619 221 80 30 133 81 144 140 7 36 -5 137 -22 177 -7 18
-3 19 95 12 111 -7 218 -26 315 -57 33 -10 81 -19 106 -19 147 0 220 165 123
280 -32 38 -80 64 -161 84 -217 57 -425 49 -586 -22 l-43 -19 -41 53 c-23 30
-42 56 -42 58 0 3 119 104 265 225 268 223 285 242 271 294 -3 12 -52 68 -109
125 -91 89 -108 102 -138 102 -19 0 -41 -6 -50 -13 -13 -10 -120 -136 -177
-209 -10 -13 -11 -22 -2 -37 22 -42 51 -25 138 79 45 55 86 100 90 100 4 0 45
-38 92 -85 73 -73 82 -87 70 -98 -52 -49 -501 -417 -508 -417 -4 0 -26 19 -49
43 l-41 42 84 100 c84 100 94 121 72 143 -25 25 -48 10 -118 -75 -40 -49 -79
-94 -86 -102 -10 -11 -20 -7 -61 25 -26 21 -49 39 -50 39 -1 1 13 37 32 81 53
123 69 215 62 369 -6 121 -30 255 -56 303 -16 30 -65 70 -103 86 -40 17 -68
19 -109 6z m123 -109 c42 -47 63 -157 63 -331 0 -112 -5 -159 -19 -205 -15
-50 -50 -130 -62 -143 -1 -2 -22 8 -46 22 l-43 26 -1 172 c-1 149 -5 188 -28
283 -30 128 -31 143 -10 173 35 50 102 51 146 3z m-248 -655 c89 -32 190 -93
305 -186 311 -251 549 -632 462 -741 -22 -28 -159 -86 -171 -72 -4 4 -13 24
-20 43 -34 90 -218 356 -264 382 -41 23 -69 -31 -37 -71 134 -165 246 -343
239 -379 -3 -13 -114 -62 -142 -62 -6 0 -24 23 -40 51 -79 141 -256 344 -406
465 -72 59 -216 158 -243 167 -15 5 31 147 50 154 31 12 237 -113 363 -221 36
-31 71 -55 79 -54 7 2 20 13 29 26 14 21 13 24 -29 63 -105 98 -268 207 -371
249 -20 8 -39 18 -42 21 -12 12 43 144 69 167 34 29 86 29 169 -2z m-305 -503
c202 -117 452 -367 565 -565 25 -44 26 -47 9 -56 -31 -15 -234 -85 -237 -81
-127 179 -297 349 -475 475 -4 4 82 254 88 254 2 0 25 -12 50 -27z m1605 -6
c49 -14 99 -36 112 -48 32 -30 40 -78 20 -118 -27 -51 -63 -53 -225 -8 -110
31 -284 52 -356 43 l-50 -6 -32 53 -32 52 25 13 c14 7 57 22 97 33 105 28 316
21 441 -14z m-1674 -374 c130 -105 341 -337 322 -354 -4 -3 -44 -19 -90 -34
l-83 -29 -31 40 c-41 51 -192 201 -243 242 l-40 32 24 68 c42 118 40 115 54
105 6 -5 46 -37 87 -70z m-53 -309 c105 -106 124 -129 111 -138 -8 -6 -74 -31
-147 -55 -147 -50 -177 -50 -196 3 -8 23 -1 52 40 172 28 79 53 144 58 144 4
0 64 -57 134 -126z"/>
<path d="M2208 1701 l-33 -29 28 -169 c16 -92 34 -179 40 -193 18 -37 54 -50
139 -50 118 0 124 8 159 201 31 172 34 207 16 230 -25 33 -55 39 -186 39 -130
0 -131 0 -163 -29z m282 -63 c0 -7 -11 -76 -25 -152 -14 -77 -25 -141 -25
-143 0 -2 -29 -3 -65 -3 -36 0 -65 3 -65 8 0 4 -11 70 -25 146 -14 77 -25 144
-25 148 0 4 52 8 115 8 85 0 115 -3 115 -12z"/>
<path d="M165 1679 c-117 -32 -155 -57 -155 -103 0 -31 125 -304 152 -333 32
-34 49 -36 135 -14 87 22 123 52 123 100 0 16 -7 97 -15 182 -22 220 -29 225
-240 168z m149 -71 c8 -36 28 -279 25 -283 -2 -2 -30 -10 -62 -18 l-57 -15
-19 36 c-32 63 -112 244 -109 247 5 4 192 53 205 54 7 1 15 -9 17 -21z"/>
<path d="M2227 573 c-13 -21 -32 -53 -43 -71 -10 -19 -30 -35 -44 -38 -116
-26 -150 -43 -150 -74 0 -10 23 -47 51 -81 l52 -61 -6 -81 c-6 -67 -4 -84 10
-99 22 -24 42 -23 109 7 70 31 80 31 150 0 68 -30 85 -31 108 -6 15 16 16 31
11 99 l-7 80 51 62 c28 33 51 70 51 80 0 26 -33 46 -110 65 -66 16 -66 17
-105 83 -35 58 -44 67 -72 70 -28 3 -35 -2 -56 -35z m82 -113 c27 -48 52 -66
104 -75 20 -4 40 -11 43 -16 3 -5 -11 -28 -31 -52 -35 -40 -36 -45 -33 -105 2
-53 0 -62 -12 -58 -92 31 -121 32 -192 1 -16 -6 -18 0 -18 58 0 60 -3 69 -35
107 -19 23 -33 45 -30 50 3 4 22 11 42 15 52 9 77 27 104 75 12 22 26 40 29
40 3 0 17 -18 29 -40z"/>
<path d="M1535 260 c-83 -81 -86 -104 -19 -196 44 -62 46 -64 90 -64 24 0 44
3 44 6 0 3 -22 37 -50 75 -27 38 -50 72 -50 77 0 4 17 25 38 45 l38 37 79 -57
c44 -31 95 -67 113 -81 l34 -24 -38 -39 -38 -39 61 0 c54 0 63 3 77 26 11 15
16 40 14 62 -3 35 -10 42 -134 129 -73 51 -146 96 -163 99 -27 6 -37 0 -96
-56z"/>
</g>
</svg>
