<?xml version="1.0" encoding="UTF-8"?>
<svg xmlns="http://www.w3.org/2000/svg" version="1.1" xmlns:xlink="http://www.w3.org/1999/xlink" viewBox="20 20 53 53">
  <defs>
    <style>
      .cls-1 {
        fill:none;
        stroke: url(#linear-gradient);
        stroke-miterlimit: 10;
        stroke-width: 2px;
      }

      .cls-2 {
        fill: #bf1109;
      }
    </style>
  </defs>
  <g>
    <g id="Layer_1">
      <circle class="cls-1" cx="46.7" cy="46.7" r="44.3"/>
      <g id="_07-healthy">
        <path class="cls-2" d="M58.9,40c1.2,0,2.4-.7,3-1.7.1-.2.1-.5,0-.7-.9-1.6-3-2.2-4.7-1.3-.5.3-1,.7-1.3,1.3-.1.2-.1.5,0,.7.6,1.1,1.7,1.7,3,1.7ZM58.9,37.3c.6,0,1.1.3,1.5.7-.8.8-2.1.9-2.9.2,0,0-.1-.1-.2-.2.4-.4.9-.7,1.5-.7Z"/>
        <path class="cls-2" d="M63.3,62.2c-.4-.4-1-.8-1.6-1.2,3-1.8,5-5.5,5-9.3s-1.4-7.6-4.4-9.1c-1.3-.6-3.2-.9-5.8.5-.1-1.2-.5-2.2-.8-3.2-.7-1.8-1.2-3.2,0-5.7l-1.2-.6c-1.5,2.9-.8,4.9,0,6.7.4,1.1.8,2.2.8,3.6,0,0,0,0-.1,0-1.9-1.4-3.5-1.9-4.8-1.9v-4.1c0-.1,0-.3-.1-.4l-4-5.3v-3.9c0-.4-.3-.7-.7-.7h-12.3c-.4,0-.7.3-.7.7v3.9l-4,5.3c0,.1-.1.3-.1.4v14.8c-.6.4-1.1,1-1.2,1.7-.3,1-.2,2.4,1.8,3.7.5.3.9.5,1.4.7-2,1.1-2.3,2.5-2.3,3.1,0,1.3,1,2.3,2.5,2.8.2,0,.5,0,.7,0,1.2,0,2.8-.8,4.5-2.5.5-.5,1-1,1.4-1.5,0,.6.3,1.2.6,1.7.8,1.2,2.4,2.1,5.3,3,2.8.8,8,1.6,12.5,1.8,1,0,2,0,2.9,0,1.1,0,2.2,0,3.3-.2,2.1-.3,3.2-.8,3.5-1.7s-.4-2-2-3.3ZM55.1,45.5c0,.4-.2.9-.4,1.3-.6-.1-1-.5-1.3-1l-1.2.7c.9,1.6,3,2.2,4.7,1.3.5-.3,1-.7,1.3-1.3l-1.2-.7c-.2.3-.4.5-.7.7.2-.6.3-1.3.4-2,1.9-1.3,3.7-1.5,5.2-.8,2.2,1,3.7,4.3,3.7,7.9s-2.1,7.1-5,8.5c-.7-.4-1.5-.9-2.3-1.3-3.9-2.2-8.7-4.3-11.5-5.1-.6-.2-1.1-.3-1.7-.4,0-.5-.1-1.1-.1-1.6,0-3.6,1.5-6.8,3.7-7.9,1.7-.8,3.9-.3,6.2,1.6.1,0,.2.1.4.1ZM29.8,38.7h11v4.1h-11v-4.1ZM42.2,38.7h6.8v3.5c-.4,0-.7.2-1,.4-3.1,1.5-4.4,5.6-4.4,9.1,0,.5,0,.9,0,1.3-.5,0-1,0-1.5,0v-14.3ZM42.8,37.3l2.7-3.7,2.7,3.7h-5.5ZM33.9,29.1h11v2.7h-11v-2.7ZM33.6,33.2h10.6l-3.1,4.1h-10.6l3.1-4.1ZM29.8,44.1h11v9.1c0,0-.1,0-.2,0-.6.2-1.1.6-1.4,1.1-.1-.6-.3-1.3-.4-2-.7-2.8-1.8-4.4-3.1-4.8-1.5-.4-2.9,0-3.6,1-.3.5-.9,1.8.3,3.8-.5-.1-1.1-.2-1.6-.2h0c-.3,0-.6,0-.8,0v-8.2ZM31,63.4c-.9-.3-1.5-.8-1.5-1.5,0-.7.8-1.8,3-2.5.4-.1.6-.5.4-.9,0-.2-.2-.4-.5-.5-3.1-.9-4.4-2-4-3.3.2-.8.9-1.2,2.1-1.2s1.8.2,3.1.5c.4.1.7-.1.8-.5,0-.2,0-.5-.1-.6-1.5-1.8-1.7-3.1-1.3-3.7.3-.5,1.2-.7,2.1-.4,1.5.4,2.5,4.5,2.9,7.4l-.7,2.4c-1.8,2.2-4.9,5.1-6.4,4.7h0ZM64,65.1c0,.3-1.8,1.2-8.2.8-1.1,0-2.2-.2-3.3-.3l.7-2.3-1.3-.4-.7,2.5c-2.9-.3-5.7-.8-7.5-1.3-2.5-.7-3.9-1.5-4.6-2.4-.6-.8-.6-2,0-3.9.5-1.9,1.2-2.9,2.1-3.3.4-.2.9-.3,1.5-.3.9,0,2.1.2,3.7.7.2,0,.4.1.7.2l-1.7,5.9,1.3.4,1.7-5.8c2.7,1,6.3,2.7,9.3,4.4.7.4,1.4.8,2,1.1l-.7,2.4,1.3.4.6-2.1c2.8,1.9,3.4,2.9,3.4,3.2Z"/>
      </g>
    </g>
  </g>
</svg>