<svg xmlns="http://www.w3.org/2000/svg" version="1.1" xmlns:xlink="http://www.w3.org/1999/xlink" xmlns:svgjs="http://svgjs.com/svgjs" width="512" height="512" x="0" y="0" viewBox="0 0 24 24" style="enable-background:new 0 0 512 512" xml:space="preserve" class=""><g><path d="M17.064 5.273C16.071 3.419 14.144 2.25 12 2.25S7.929 3.418 6.936 5.273A4.247 4.247 0 0 0 2.25 9.5a4.27 4.27 0 0 0 3 4.059V19.5c0 1.241 1.01 2.25 2.25 2.25h9c1.24 0 2.25-1.009 2.25-2.25v-5.941a4.269 4.269 0 0 0 3-4.059c0-2.487-2.15-4.489-4.686-4.227zM16.5 20.25h-9a.75.75 0 0 1-.75-.75v-2.75h10.5v2.75a.75.75 0 0 1-.75.75zm1.395-8.033a.75.75 0 0 0-.645.743v2.29h-1.864l.354-2.126a.75.75 0 0 0-1.48-.247l-.396 2.374H12.75v-3.25a.75.75 0 0 0-1.5 0v3.25h-1.114l-.396-2.374a.75.75 0 0 0-1.48.247l.354 2.126H6.75v-2.29a.75.75 0 0 0-.645-.743A2.754 2.754 0 0 1 3.75 9.5a2.752 2.752 0 0 1 3.438-2.663c.363.091.737-.1.876-.445.653-1.605 2.198-2.643 3.936-2.643s3.282 1.037 3.936 2.643c.14.345.513.537.876.445A2.749 2.749 0 0 1 20.25 9.5a2.755 2.755 0 0 1-2.355 2.717z" fill="#c93d3d" data-original="#000000"></path></g></svg>